<svg width="65" height="65" viewBox="0 0 65 65" fill="none" xmlns="http://www.w3.org/2000/svg">
<path d="M16.3272 8.73031C19.8504 5.12078 24.6807 3.04688 29.7527 3.04688H30.3337C35.2605 3.04688 40.0827 4.41188 44.2782 6.99461C49.0628 9.93789 52.7333 14.235 54.8945 19.4208L56.7958 23.984C56.9268 24.2978 56.8923 24.6553 56.7034 24.9377L54.6721 27.9845C54.4192 28.3644 53.951 28.5218 53.5285 28.3918L53.7753 29.1312C53.9135 29.5455 53.7713 30.0026 53.4209 30.2646L49.3584 33.3115C49.0506 33.543 48.6393 33.5786 48.295 33.408L47.7344 33.1277V34.5312C47.7344 34.9162 47.517 35.2676 47.1727 35.4402L43.1102 37.4715C42.7192 37.6665 42.248 37.5903 41.9382 37.2805L41.6406 36.983V37.5781C41.6406 37.8635 41.5147 38.1235 41.3156 38.3114L42.9102 39.1087C45.2268 40.2685 47.0326 42.2297 47.9944 44.6347C48.4961 45.888 48.75 47.2073 48.75 48.558V63.9844H46.7188V48.558C46.7188 48.0248 46.668 47.4977 46.5705 46.9808C42.509 47.6998 38.867 49.987 36.4874 53.3863C35.0025 55.508 33.0292 57.3077 30.7806 58.5924L28.9778 59.6233C27.4727 60.4825 25.7603 60.9375 24.0256 60.9375C22.2016 60.9375 20.4151 60.4256 18.8652 59.4892C18.4874 60.9477 18.2813 62.4548 18.2813 63.9844H16.25C16.25 59.153 18.002 54.4903 21.1829 50.8564L22.5063 49.3441C23.2111 48.5377 23.8692 47.6785 24.4613 46.7898C25.0697 45.8778 25.3906 44.8165 25.3906 43.7196C25.3906 43.1234 25.2952 42.5344 25.1063 41.9687L22.6271 34.5312H18.2813C16.6207 34.5312 15.1917 33.2922 14.9581 31.6489L14.3041 27.0766L13.9293 26.8887C12.8548 26.3514 12.1875 25.2718 12.1875 24.0713C12.1875 23.3939 12.4109 22.7226 12.8182 22.1812L15.2344 18.9587V17.5053C15.2344 16.898 15.3035 16.2957 15.407 15.6985C15.1166 15.6691 14.8251 15.6457 14.5346 15.6142C12.0392 15.338 10.1563 13.2346 10.1563 10.723V8.125C10.1563 7.56437 9.70025 7.10938 9.14064 7.10938C8.58002 7.10938 8.12502 6.65539 8.12502 6.09375C8.12502 3.29367 10.4031 1.01562 13.2031 1.01562H14.6067C16.0733 1.01562 17.2656 2.20898 17.2656 3.67453C17.2656 4.08484 17.1681 4.49719 16.9853 4.86383C16.5039 5.82461 16.25 6.90219 16.25 7.97672V8.42156C16.25 8.53227 16.2805 8.63484 16.3272 8.73031ZM29.7527 5.07812C25.7227 5.07812 21.8634 6.54672 18.8439 9.14062H28.2141C32.8006 9.14062 37.3994 8.74047 41.9301 7.99297C38.3683 6.08562 34.3911 5.07812 30.3347 5.07812H29.7527ZM53.4808 26.1127L54.7127 24.2643L53.0207 20.2028C52.0467 17.8648 50.7356 15.727 49.139 13.8298L45.4249 14.4483C47.6968 17.0026 49.6417 19.824 51.1743 22.8902L52.5535 25.6496L53.4808 26.1127ZM48.6434 31.3107L51.6181 29.0804L50.8564 26.7963L49.3574 23.7991C47.712 20.5075 45.5802 17.5053 43.0432 14.8444C41.9189 15.0312 40.7875 15.1877 39.6541 15.337C42.2988 19.436 44.6063 23.7748 46.4842 28.2811L47.511 30.745L48.6434 31.3107ZM42.8563 35.3265L45.7031 33.9036V31.6885L44.6093 29.0631C42.6502 24.3628 40.2238 19.8412 37.4146 15.603C36.3787 15.7168 35.3438 15.8305 34.3048 15.9128C37.504 20.9889 39.8176 26.518 41.1714 32.3832L41.5492 34.0194L42.8563 35.3265ZM29.4531 37.6624V38.5938H32.7224L33.5126 35.4341C33.4963 28.8803 32.1161 22.5327 29.4044 16.5659L29.2307 16.184C28.1572 16.2165 27.0847 16.25 26.0132 16.25C25.7786 16.25 25.542 16.2419 25.3074 16.2398C28.0465 23.076 29.4531 30.2717 29.4531 37.6624ZM35.5428 35.4067L36.2497 38.2342L39.6094 36.8905V34.647L39.192 32.8382C37.8067 26.8328 35.3763 21.193 31.9831 16.055C31.7911 16.0662 31.6002 16.0804 31.4082 16.0905C34.1301 22.2117 35.5245 28.7056 35.5428 35.4067ZM27.9693 57.8591L29.7731 56.8283C31.7627 55.6908 33.5095 54.0983 34.8228 52.2214C37.4593 48.4555 41.4649 45.8951 45.9449 45.0298C45.4635 43.9715 44.783 43.0259 43.9339 42.253C40.4859 43.2362 37.4695 45.3629 35.4078 48.3082C33.9239 50.4288 31.9506 52.2285 29.701 53.5143L27.8982 54.5452C26.3941 55.4044 24.6817 55.8594 22.947 55.8594C22.0899 55.8594 21.2438 55.7497 20.4212 55.5344C20.084 56.1641 19.7763 56.808 19.5173 57.4722C21.9802 59.1541 25.3693 59.345 27.9693 57.8591ZM21.5485 53.689C23.3655 54.0069 25.281 53.7002 26.8907 52.78L28.6935 51.7491C30.6841 50.6116 32.4299 49.0191 33.7431 47.1423C35.7541 44.2691 38.5724 42.0895 41.8092 40.8281L38.8853 39.3666L36.0963 40.4818C34.642 41.5177 33.3836 42.7812 32.3599 44.2437C30.876 46.3643 28.9027 48.164 26.6531 49.4498L24.8493 50.4806C24.4969 50.6817 24.1242 50.8462 23.7494 51.0027L22.7094 52.192C22.293 52.6713 21.9111 53.1741 21.5485 53.689ZM17.2656 17.5053V19.2969C17.2656 19.5173 17.1945 19.7305 17.0625 19.9062L14.4432 23.399C14.296 23.594 14.2188 23.8276 14.2188 24.0713C14.2188 24.4979 14.4554 24.8818 14.8373 25.0717L15.6884 25.4973C15.986 25.6455 16.1921 25.933 16.2388 26.262L16.967 31.3615C17.0605 32.0115 17.6252 32.5 18.2813 32.5H23.1197L24.9367 31.591L25.8456 33.408L24.6025 34.0295L27.0349 41.3258C27.2919 42.0997 27.4219 42.9051 27.4219 43.7196C27.4219 44.8795 27.1517 46.0088 26.647 47.0397C28.2181 45.9733 29.6106 44.6327 30.6963 43.0808C31.3168 42.1952 32.0156 41.3776 32.7803 40.625H28.4375C27.8769 40.625 27.4219 40.171 27.4219 39.6094V37.6624C27.4219 31.848 26.5251 26.1554 24.763 20.6761C23.9038 22.2645 22.2422 23.3594 20.3125 23.3594H18.2813C17.7206 23.3594 17.2656 22.9054 17.2656 22.3438C17.2656 19.5437 19.5437 17.2656 22.3438 17.2656H23.531C23.3919 16.9122 23.2528 16.5598 23.1055 16.2084C21.2154 16.1555 19.3213 16.0499 17.4373 15.8945C17.3357 16.4267 17.2656 16.963 17.2656 17.5053ZM23.1857 19.2969H22.3438C21.0194 19.2969 19.89 20.1459 19.4706 21.3281H20.3125C21.6369 21.3281 22.7663 20.4791 23.1857 19.2969ZM14.6067 3.04688H13.2031C11.8006 3.04688 10.6163 3.99953 10.2629 5.29242C11.3892 5.74031 12.1875 6.84125 12.1875 8.125V10.723C12.1875 12.1977 13.2925 13.4327 14.7591 13.5952C24.047 14.628 33.5563 14.3691 42.767 12.8324L47.4744 12.0484C46.5634 11.1637 45.5813 10.3482 44.5321 9.6068C39.1635 10.6387 33.6781 11.1719 28.2141 11.1719H16.9681C16.2338 11.1719 15.5431 10.8865 15.0242 10.3665C14.5052 9.84648 14.2188 9.15688 14.2188 8.42258V7.97672C14.2188 6.58836 14.5468 5.19695 15.1684 3.95484C15.212 3.86953 15.2344 3.77203 15.2344 3.67453C15.2344 3.3282 14.9531 3.04688 14.6067 3.04688Z" fill="#E8DAD6"/>
<path d="M38.5938 61.1772V63.9844H36.5625V61.1772C36.5625 59.8477 36.2487 58.5173 35.6535 57.329L37.4705 56.42C38.2058 57.8896 38.5938 59.5349 38.5938 61.1772Z" fill="#E8DAD6"/>
</svg>
